<svg xmlns="http://www.w3.org/2000/svg" width="420" height="70" fill="none" viewBox="0 0 420 70">
  <path fill="#fff" d="M52.08 59.176c-.17 0-.32-.021-.448-.064a7.028 7.028 0 0 1-1.6-1.28c-.128-.213-.213-.32-.256-.32-.043-.085-.107-.128-.192-.128l-.128-.064-.256-.256L43.76 49c-.256-.555-.619-1.152-1.088-1.792a5.417 5.417 0 0 1-.768-.96c-.17-.256-.341-.384-.512-.384-.128 0-.235.064-.32.192a4.43 4.43 0 0 0-.128.512c-.128 1.152-.192 2.71-.192 4.672 0 1.877-.107 3.392-.32 4.544-.128.555-.32.832-.576.832h-.384a.568.568 0 0 0-.256-.064l-.064-.064c-1.493.128-3.733.277-6.72.448-2.901.17-5.12.256-6.656.256-.427 0-.768-.043-1.024-.128h-3.136l-2.304-.768-.192-.512c0-.043-.021-.128-.064-.256v-.512c0-.256-.043-.725-.128-1.408-.213-2.603-.299-3.627-.256-3.072-.085-1.11-.235-3.03-.448-5.76l-.192-2.368c0-.768-.021-1.45-.064-2.048a55.515 55.515 0 0 0-.128-1.536l-.128-1.408a67.736 67.736 0 0 1-.192-4.928v-.192c.043-.085.064-.256.064-.512.085-.256.128-.661.128-1.216l.064-1.152.064-.768c0-.896-.043-2.197-.128-3.904-.17-1.067-.256-2.432-.256-4.096 0-2.39.15-4.139.448-5.248.384-1.536 1.024-2.304 1.92-2.304 4.821 0 9.728.064 14.72.192 1.11 0 2.773.043 4.992.128l2.496.064c3.413.085 5.781.128 7.104.128 5.504.256 9.664 1.643 12.48 4.16 1.28 1.067 2.219 2.347 2.816 3.84.64 1.493.96 3.093.96 4.8 0 1.963-.363 3.776-1.088 5.44-.597 1.323-1.45 2.539-2.56 3.648a12.81 12.81 0 0 1-3.648 2.56c.256.128.597.405 1.024.832.17.213.47.49.896.832l.896.64c.128.213.277.427.448.64.17.17.341.363.512.576l3.008 3.712c1.365 1.75 2.24 3.03 2.624 3.84.299.555.448.981.448 1.28 0 .427-.17.81-.512 1.152-.341.341-.853.768-1.536 1.28-.512.384-1.11.747-1.792 1.088-.64.341-1.13.661-1.472.96l-2.368 1.28c-.853.47-1.77.875-2.752 1.216a.49.49 0 0 0-.192.064.695.695 0 0 1-.256.128c-.256.128-.96.363-2.112.704-.213.128-.576.235-1.088.32-.128.085-.277.15-.448.192a1.75 1.75 0 0 1-.384.064h-.32c-.043.213-.128.32-.256.32h-.384ZM41.584 36.584c1.323 0 2.368-.661 3.136-1.984.725-1.195 1.13-2.56 1.216-4.096a34.38 34.38 0 0 0 .128-3.2V26.6c0-.981-.17-2.005-.512-3.072-.341-1.365-1.045-2.347-2.112-2.944-.47-.384-1.088-.576-1.856-.576-.213 0-.384.256-.512.768-.384.939-.597 2.432-.64 4.48-.17.853-.256 1.856-.256 3.008l-.064 1.92a184.46 184.46 0 0 0-.128 6.144c0 .043.021.085.064.128s.085.064.128.064l.448.064h.96Zm34.435 20.16c-.085 0-.15-.085-.192-.256-.299-.384-.512-.853-.64-1.408a3.08 3.08 0 0 1-.32-.832c-.384-.768-.661-1.835-.832-3.2-.17-1.963-.256-3.52-.256-4.672a26.907 26.907 0 0 1-.064-2.112v-1.536c0-1.28-.021-2.283-.064-3.008-.043-.768-.064-2.283-.064-4.544 0-6.059.128-10.73.384-14.016 0-.512.725-.896 2.176-1.152h3.52c2.432 0 4.245.043 5.44.128 1.792.128 3.605.192 5.44.192.427 0 .747-.021.96-.064h.96l.32.256a28.878 28.878 0 0 1 4.352-.576c1.493-.085 3.307-.128 5.44-.128.085 0 .192.064.32.192h2.048c.341 0 .597.192.768.576.213.384.384.939.512 1.664.171.555.299 1.237.384 2.048.171 1.067.32 1.77.448 2.112 0 1.195-.213 1.792-.64 1.792-.043 0-.107-.064-.192-.192l-.256-.064a1.367 1.367 0 0 0-.704.064 1.833 1.833 0 0 1-.832.192c-.256 0-.469-.064-.64-.192-.085-.043-.277-.064-.576-.064-.384 0-.832.064-1.344.192-.171.043-.512.107-1.024.192a9.425 9.425 0 0 1-1.664.128c-1.835 0-3.157.043-3.968.128-.47.043-.917.17-1.344.384v-.128c-.17 0-.32.213-.448.64-.299.725-.49 1.728-.576 3.008-.043.384-.064.81-.064 1.28s.064.79.192.96c.17.17.427.256.768.256.256 0 .47-.085.64-.256.085 0 .192.021.32.064a.804.804 0 0 1 .32.192h5.44a.422.422 0 0 1 .192-.192.568.568 0 0 1 .256-.064c.427 0 .747.064.96.192.256.128.768.256 1.536.384.427 0 .725.128.896.384.213.299.32.576.32.832l1.344 4.224c.128.683-.512 1.13-1.92 1.344-.811.17-2.368.256-4.672.256h-4.672c-.597 0-1.045.043-1.344.128-.299.043-.49.192-.576.448-.17.213-.256.555-.256 1.024v.256c0 .213.021.363.064.448l-.064 1.408c-.043.299-.064.747-.064 1.344V49c1.92 0 3.883-.064 5.888-.192a89.486 89.486 0 0 1 5.824-.192c.128 0 .235.107.32.32.085.17.128.384.128.64.085.256.128.533.128.832.085.64.213 1.237.384 1.792l.448 1.856v1.984l-.512.448h-.64c-.469 0-.768-.021-.896-.064a.788.788 0 0 0-.448-.128l-.384.192a3.99 3.99 0 0 0-.448.256v-.32l-.768.064h-.96c-.171 0-.299-.043-.384-.128l-.512-.064c-1.579 0-2.688.15-3.328.448H76.019Zm45.492 1.536-1.472-.256c-1.408-.213-2.581-.47-3.52-.768a2.798 2.798 0 0 1-1.344-.448c-.341-.128-.555-.299-.64-.512l-1.408-7.936v-.32c0-.299.021-.512.064-.64.085-.17.235-.277.448-.32 2.773 1.067 5.504 1.6 8.192 1.6.853 0 1.515.021 1.984.064 1.621 0 2.795-.213 3.52-.64.384-.256.576-.619.576-1.088 0-.683-.213-1.237-.64-1.664-.427-.47-1.045-.875-1.856-1.216l-2.048-.768c-.597-.128-1.28-.363-2.048-.704 0-.043-.021-.064-.064-.064a.746.746 0 0 1-.128-.192c-.171-.043-.533-.256-1.088-.64l-.384-.192c.085 0 .128-.021.128-.064s-.064-.085-.192-.128c-.128-.085-.384-.213-.768-.384a5.04 5.04 0 0 1-.896-.704c-.384-.213-.576-.47-.576-.768v-.32c-1.067 0-1.984-1.11-2.752-3.328-.64-2.261-.96-3.861-.96-4.8 0-3.968 1.707-7.019 5.12-9.152 2.773-1.75 6.592-2.923 11.456-3.52 3.157-.341 7.083-.512 11.776-.512.597.213 1.067.341 1.408.384.768.043 1.28.299 1.536.768.128.213.235.64.32 1.28.128.683.256 2.667.384 5.952.085.085.128.213.128.384 0 .341-.469.619-1.408.832-1.024.128-1.685.192-1.984.192l-1.472.192a112.83 112.83 0 0 0-3.264.448c-1.749.299-2.965.832-3.648 1.6-.427.512-.64 1.045-.64 1.6 0 .299.043.533.128.704.085.17.299.363.64.576.384.213 1.493.747 3.328 1.6 1.963.853 3.925 1.963 5.888 3.328 1.664 1.152 2.859 2.688 3.584 4.608.384.81.576 1.877.576 3.2 0 1.195-.149 2.219-.448 3.072-1.109 2.816-3.2 5.12-6.272 6.912a20.402 20.402 0 0 1-4.544 1.984c-1.579.512-3.093.768-4.544.768l-9.408.192-.768-.192Zm45.128-.32c-1.707.085-3.158.043-4.352-.128a12.4 12.4 0 0 1-2.688-.896c-.811-.384-1.558-.981-2.24-1.792-1.366-1.707-2.283-3.947-2.752-6.72-.342-2.261-.47-4.736-.384-7.424v-2.816c0-.384.021-.683.063-.896v-3.072l.193-.448v-.192c.042-.085.064-.235.064-.448.128-1.536.192-2.773.192-3.712l.128-2.368c.042-1.067.064-2.304.064-3.712 0-.555-.022-.939-.064-1.152a7.753 7.753 0 0 1-.128-1.216c0-.64.661-.96 1.984-.96h.896c.512 0 .853-.043 1.024-.128l7.808.128.063.128a.49.49 0 0 0 .193.064l.512-.192c2.218 0 3.648.213 4.288.64.426.299.725.747.896 1.344.213.597.32 1.408.32 2.432 0 .683.042 1.621.128 2.816.085.597.128 1.536.128 2.816v.64c-.086 1.237-.171 3.264-.256 6.08l-.064 3.072V42.6c-.086.512-.128 1.195-.128 2.048v1.92c-.043.597.042 1.43.256 2.496.213.341.405.512.576.512.256 0 1.216-.32 2.88-.96l1.536-.768c.426-.17.64-.341.64-.512V26.28c-.128-.896-.192-1.6-.192-2.112-.043-.213-.064-.533-.064-.96v-1.6c0-.512.106-.875.32-1.088.085-.128.298-.192.64-.192.085 0 .17.043.256.128.085.043.128.107.128.192v.128c.426-.17 1.344-.32 2.752-.448a34.984 34.984 0 0 1 3.84-.192h3.84l6.72.192c.085 0 .149.021.192.064.085.043.128.085.128.128.042 0 .064.021.064.064v.384c-.043 0-.064.064-.064.192l.32-.064c.042-.085.106-.128.192-.128.128 0 .192.107.192.32 0 7.467-.043 13.675-.128 18.624a296.33 296.33 0 0 1-.512 14.912c0 .213-.171.533-.512.96a6.47 6.47 0 0 1-.448.512.422.422 0 0 1-.192.192.722.722 0 0 0-.192.128c-.043-.043-.192-.085-.448-.128a2.11 2.11 0 0 0-.64-.128l-.192.128c-.086.085-.171.128-.256.128-1.707.299-4.395.448-8.064.448h-2.816c-1.067 0-2.006-.085-2.816-.256-.299-.213-.619-.747-.96-1.6a2.045 2.045 0 0 0-.256-.768c-.086-.213-.192-.32-.32-.32-.342 0-.875.235-1.6.704a3.9 3.9 0 0 1-.384.32 2.54 2.54 0 0 0-.384.32c-.342.256-.576.47-.704.64-1.152.64-2.518 1.11-4.096 1.408-1.067.256-2.048.384-2.944.384-.982 0-1.707.021-2.176.064Zm45.747-.768c-.427 0-.768-.043-1.024-.128h-2.88l-2.88-.704-.256-.512c-.043 0-.064-.235-.064-.704 0-.597-.021-1.088-.064-1.472l-.064-2.944c-.043-.64-.064-1.6-.064-2.88l-.128-4.928c0-1.067.043-2.539.128-4.416l.064-2.176c.085-1.365.128-3.605.128-6.72v-1.28c-.085-.128-.128-.363-.128-.704l-.064-.448c0-1.067.064-2.176.192-3.328a68.32 68.32 0 0 0 .128-3.968l-.064-1.792a18.564 18.564 0 0 1-.064-1.664c0-.043-.043-.107-.128-.192a.564.564 0 0 1-.064-.256c0-.427.171-.79.512-1.088.341-.299.768-.512 1.28-.64.683-.213 1.557-.32 2.624-.32h15.808c.043 0 .107.043.192.128s.171.15.256.192c.341.299.768.875 1.28 1.728.128.256.256.555.384.896.171.299.384.79.64 1.472.299.683.704 1.728 1.216 3.136l.768 1.984c.341.64.725 1.557 1.152 2.752l.384 1.024c.171.341.32.683.448 1.024.085.299.171.533.256.704.128.128.192.213.192.256.299.683.619 1.024.96 1.024.427 0 .768-.341 1.024-1.024a.695.695 0 0 0 .128-.256c.043-.17.149-.427.32-.768l.96-2.112 2.56-5.44 1.088-2.304c.128-.341.213-.619.256-.832.085-.256.171-.427.256-.512.171-.384.576-1.045 1.216-1.984.213-.341.405-.597.576-.768.128-.043.213-.107.256-.192.043-.085.107-.128.192-.128h19.648c.085 0 .192.32.32.96l.192 6.272c.085 1.792.128 4.608.128 8.448v3.712c0 1.45-.064 3.072-.192 4.864a377.467 377.467 0 0 1-.256 3.456l-.128 1.28v2.24c.043.597.064 1.493.064 2.688 0 1.28.021 2.24.064 2.88 0 1.237.043 2.09.128 2.56v2.56l-.192.512-2.88.704h-2.88a4.007 4.007 0 0 1-1.088.128c-.768 0-1.835-.043-3.2-.128l-1.6-.064c-.299-.043-.64-.085-1.024-.128a13.037 13.037 0 0 0-1.408-.064l-2.496-.192c-.085 0-.149.021-.192.064h-.512c-.213 0-.341-.235-.384-.704-.256-.853-.384-2.304-.384-4.352 0-1.365-.021-2.432-.064-3.2l-.064-3.456c-.043-.768-.064-1.877-.064-3.328 0-.341-.149-.512-.448-.512-.171 0-.341.213-.512.64l-.704 1.728-.576 1.6-.256.768c-.085.256-.192.49-.32.704l-.32.768a37.532 37.532 0 0 1-1.472 2.88c-.64 1.152-1.429 2.07-2.368 2.752-.512.299-.96.448-1.344.448h-.96c-.512 0-.939-.043-1.28-.128h-2.688c-1.707-2.73-3.307-5.717-4.8-8.96l-.96-2.368c-.256-.555-.427-.832-.512-.832-.299 0-.448.17-.448.512v3.008c0 2.987-.043 5.184-.128 6.592-.085 2.219-.235 3.755-.448 4.608-.043.555-.171.832-.384.832h-.448l-.32-.064c-1.451.085-2.603.17-3.456.256-.512.043-1.408.107-2.688.192-1.28.085-2.475.128-3.584.128Zm58.154-.128c-.811 0-1.131-.725-.96-2.176 0-.512.106-1.088.32-1.728 0-.299.021-.533.064-.704.042-.213.064-.384.064-.512a280.69 280.69 0 0 1 3.264-13.76l4.352-17.024c0-.085.064-.192.192-.32a2.54 2.54 0 0 1 .384-.32h.448c.512 0 .917-.064 1.216-.192.256-.043.704-.064 1.344-.064 1.024 0 1.792.021 2.304.064.768.128 1.557.192 2.368.192l3.328-.064a5.06 5.06 0 0 1 1.216-.128l2.816-.128h2.112c.81 0 1.6.021 2.368.064h1.792c.426.043 1.045.064 1.856.064h2.431c.129 0 .257.021.385.064s.234.085.32.128c.17.085.384.128.64.128h.576c.298.213.448.427.448.64l4.544 16.896c1.408 5.419 2.517 10.005 3.328 13.76 0 .213.064.619.192 1.216.17.853.256 1.536.256 2.048 0 .299-.043.704-.128 1.216-.214.427-.512.64-.896.64h-.704A9.66 9.66 0 0 1 311.5 57h-3.84c-.299 0-.47-.021-.512-.064h-3.52l-.064-.128c-.086-.085-.214-.128-.384-.128l-.192.128c0 .085-.043.128-.128.128h-.64c-.214-.085-.598-.128-1.152-.128a31.836 31.836 0 0 0-2.561-.128c-.469-.981-1.023-3.136-1.663-6.464a21.92 21.92 0 0 1-3.072.192h-3.264c-.171.64-.278 1.173-.32 1.6-.043.213-.214.939-.512 2.176-.299 1.237-.576 2.07-.832 2.496l-.384.128a2.464 2.464 0 0 0-.32.128h-.256c-.256 0-.427-.043-.512-.128-.171-.085-.278-.128-.32-.128l-2.432.128h-1.792a4.393 4.393 0 0 0-.512.128h-5.888c-.384.043-1.174.064-2.368.064h-1.536c-.256.043-.662.064-1.216.064h-.768Zm25.728-13.696c-.256-1.45-.406-2.304-.448-2.56l-.512-3.072a45.346 45.346 0 0 0-.256-1.6 20.92 20.92 0 0 1-.192-1.408 30.115 30.115 0 0 1-.32-1.408c-.043-.47-.107-.896-.192-1.28a17.294 17.294 0 0 1-.128-.96c-.043-.427-.107-.725-.192-.896l-.128-.768c0-.17-.043-.32-.128-.448l-.064-.384-.128.384v.448c0 .043-.022.128-.064.256-.043.085-.086.256-.128.512-.043.213-.086.49-.128.832-.043.299-.107.64-.192 1.024l-.448 2.624-.512 2.944-.192 1.408c-.086.341-.171.896-.256 1.664-.384 1.92-.555 2.795-.512 2.624h2.816a.722.722 0 0 1 .192-.128c.085-.085.149-.128.192-.128h.192c.213 0 .384.021.512.064.17.043.32.085.448.128.256.085.512.128.768.128Zm43.943 13.824h-10.496c-.384-.597-.64-1.685-.768-3.264-.171-1.408-.256-3.456-.256-6.144l.064-7.04c.043-1.707.064-4.416.064-8.128l-.192-.192h-6.336c-.939 0-1.557-1.067-1.856-3.2-.171-1.152-.256-2.837-.256-5.056v-.832c.085-.299.128-.768.128-1.408v-1.28l.064-.512.256-.256 1.152.064h1.28c1.877 0 3.307-.021 4.288-.064h12.992a33.06 33.06 0 0 0 2.368.064h1.6c.171-.085.448-.128.832-.128.299-.085.576-.128.832-.128.811 0 1.429.043 1.856.128.853.085 1.493.128 1.92.128l1.664-.064h2.496c1.28 0 2.155.021 2.624.064l.896.064.192.192c.085.043.128.085.128.128v10.88c0 .256-.149.533-.448.832-.256.299-.512.49-.768.576-1.408-.299-3.243-.448-5.504-.448h-2.432c-.64 0-1.067.81-1.28 2.432-.085.47-.128 1.152-.128 2.048v1.92c0 .853.021 1.493.064 1.92v1.792a42.9 42.9 0 0 1-.256 4.864c-.085 1.11-.128 1.92-.128 2.432-.085.512-.128 1.216-.128 2.112 0 1.28-.043 2.347-.128 3.2-.043 1.323-.533 2.027-1.472 2.112-1.024.128-1.621.192-1.792.192h-3.136Zm25.621-.448c-.086 0-.15-.085-.192-.256-.299-.384-.512-.853-.64-1.408a3.07 3.07 0 0 1-.32-.832c-.384-.768-.662-1.835-.832-3.2-.171-1.963-.256-3.52-.256-4.672a26.76 26.76 0 0 1-.064-2.112v-1.536c0-1.28-.022-2.283-.064-3.008-.043-.768-.064-2.283-.064-4.544 0-6.059.128-10.73.384-14.016 0-.512.725-.896 2.176-1.152h3.52c2.432 0 4.245.043 5.44.128 1.792.128 3.605.192 5.44.192.426 0 .746-.021.96-.064h.96l.32.256a28.867 28.867 0 0 1 4.352-.576c1.493-.085 3.306-.128 5.44-.128.085 0 .192.064.32.192h2.048c.341 0 .597.192.768.576.213.384.384.939.512 1.664.17.555.298 1.237.384 2.048.17 1.067.32 1.77.448 2.112 0 1.195-.214 1.792-.64 1.792-.043 0-.107-.064-.192-.192l-.256-.064a1.366 1.366 0 0 0-.704.064 1.836 1.836 0 0 1-.832.192c-.256 0-.47-.064-.64-.192-.086-.043-.278-.064-.576-.064-.384 0-.832.064-1.344.192-.171.043-.512.107-1.024.192a9.433 9.433 0 0 1-1.664.128c-1.835 0-3.158.043-3.968.128a3.73 3.73 0 0 0-1.344.384v-.128c-.171 0-.32.213-.448.64-.299.725-.491 1.728-.576 3.008-.043.384-.064.81-.064 1.28s.064.79.192.96c.17.17.426.256.768.256a.869.869 0 0 0 .64-.256c.085 0 .192.021.32.064a.809.809 0 0 1 .32.192h5.44a.413.413 0 0 1 .192-.192.564.564 0 0 1 .256-.064c.426 0 .746.064.96.192.256.128.768.256 1.536.384.426 0 .725.128.896.384.213.299.32.576.32.832l1.344 4.224c.128.683-.512 1.13-1.92 1.344-.811.17-2.368.256-4.672.256h-4.672c-.598 0-1.046.043-1.344.128-.299.043-.491.192-.576.448-.171.213-.256.555-.256 1.024v.256c0 .213.021.363.064.448l-.064 1.408c-.043.299-.064.747-.064 1.344V49c1.92 0 3.882-.064 5.888-.192a89.463 89.463 0 0 1 5.824-.192c.128 0 .234.107.32.32.085.17.128.384.128.64.085.256.128.533.128.832.085.64.213 1.237.383 1.792l.449 1.856v1.984l-.512.448h-.64c-.47 0-.768-.021-.896-.064a.79.79 0 0 0-.448-.128l-.384.192a3.99 3.99 0 0 0-.448.256v-.32l-.768.064h-.96c-.171 0-.299-.043-.384-.128l-.512-.064c-1.579 0-2.688.15-3.328.448h-20.288Z"/>
</svg>
